<?xml version="1.0" standalone="no"?><!DOCTYPE svg PUBLIC "-//W3C//DTD SVG 1.1//EN" "http://www.w3.org/Graphics/SVG/1.1/DTD/svg11.dtd"><svg t="1586329664281" class="icon" viewBox="0 0 1024 1024" version="1.1" xmlns="http://www.w3.org/2000/svg" p-id="870" xmlns:xlink="http://www.w3.org/1999/xlink" width="270" height="270"><defs><style type="text/css"></style></defs><path d="M445 60.2c-65.7 59.3-326.6 294-403.7 363.3l-41.2 37-0.1 68.9v68.8l6.7-6c3.8-3.3 26.6-23.8 50.8-45.6l44-39.6 0.3 258.5 0.2 258.5h308V717h204v307h308l0.2-258.5 0.3-258.5 44 39.6c24.2 21.8 47 42.3 50.8 45.6l6.7 6v-68.8l-0.1-68.9-41.2-37c-36.2-32.5-175-157.4-400.4-360.2C544.2 29 512.5 1 511.8 1.1c-0.7 0-30.8 26.6-66.8 59.1zM654.7 266c77.9 70.1 146.8 132 152.9 137.5l11.2 10 0.1 254.2 0.1 254.3H717V614H307v308H205l0.1-254.3 0.1-254.2 13.6-12.2c7.5-6.7 76.5-68.7 153.2-137.7 76.7-69.1 139.8-125.4 140.2-125.3 0.4 0.1 64.5 57.6 142.5 127.7z" fill="#333333" p-id="871"></path></svg>