<?xml version="1.0" standalone="no"?><!DOCTYPE svg PUBLIC "-//W3C//DTD SVG 1.1//EN" "http://www.w3.org/Graphics/SVG/1.1/DTD/svg11.dtd"><svg t="1586329258474" class="icon" viewBox="0 0 1072 1024" version="1.1" xmlns="http://www.w3.org/2000/svg" p-id="2362" xmlns:xlink="http://www.w3.org/1999/xlink" width="282.65625" height="270"><defs><style type="text/css"></style></defs><path d="M338.397628 0.030231h-195.04186A146.281396 146.281396 0 0 0 0 146.311627v195.041861A146.281396 146.281396 0 0 0 146.281396 487.634883h195.04186A146.281396 146.281396 0 0 0 487.604652 338.42786v-195.041861A146.281396 146.281396 0 0 0 338.397628 0.030231zM390.083721 338.42786a48.760465 48.760465 0 0 1-48.760465 48.760465h-195.04186a48.760465 48.760465 0 0 1-48.760466-48.760465v-195.041861A48.760465 48.760465 0 0 1 146.281396 97.551162h195.04186a48.760465 48.760465 0 0 1 48.760465 48.760465zM924.49842 0.030231h-195.041861A146.281396 146.281396 0 0 0 585.125582 146.311627v195.041861A146.281396 146.281396 0 0 0 732.382187 487.634883h195.04186A146.281396 146.281396 0 0 0 1072.730234 338.42786v-195.041861A146.281396 146.281396 0 0 0 924.49842 0.030231zM975.209303 338.42786a48.760465 48.760465 0 0 1-48.760465 48.760465h-195.04186a48.760465 48.760465 0 0 1-48.760466-48.760465v-195.041861a48.760465 48.760465 0 0 1 48.760466-48.760465h195.04186a48.760465 48.760465 0 0 1 48.760465 48.760465zM338.397628 539.320976h-195.04186A146.281396 146.281396 0 0 0 0 682.676744v195.04186a146.281396 146.281396 0 0 0 146.281396 146.281396h195.04186A146.281396 146.281396 0 0 0 487.604652 877.718604V682.676744a146.281396 146.281396 0 0 0-149.207024-143.355768zM390.083721 877.718604a48.760465 48.760465 0 0 1-48.760465 48.760466h-195.04186A48.760465 48.760465 0 0 1 97.52093 877.718604V682.676744a48.760465 48.760465 0 0 1 48.760466-48.760465h195.04186A48.760465 48.760465 0 0 1 390.083721 682.676744zM924.49842 539.320976h-195.041861A146.281396 146.281396 0 0 0 585.125582 682.676744v195.04186a146.281396 146.281396 0 0 0 146.281396 146.281396h195.04186A146.281396 146.281396 0 0 0 1072.730234 877.718604V682.676744a146.281396 146.281396 0 0 0-148.231814-143.355768zM975.209303 877.718604a48.760465 48.760465 0 0 1-48.760465 48.760466h-195.04186A48.760465 48.760465 0 0 1 682.646512 877.718604V682.676744a48.760465 48.760465 0 0 1 48.760466-48.760465h195.04186a48.760465 48.760465 0 0 1 48.760465 48.760465z" fill="#666666" p-id="2363"></path></svg>